Coordinates
version=1
nRows=7
nColumns=63
inDegrees=yes

Units are S.I. units (second, meters, Newtons, ...)
If the header above contains a line with 'inDegrees', this indicates whether rotational values are in degrees (yes) or radians (no).

endheader
time	pelvis_tilt	pelvis_list	pelvis_rotation	pelvis_tx	pelvis_ty	pelvis_tz	hip_flexion_r	hip_adduction_r	hip_rotation_r	knee_angle_r	knee_angle_r_beta	ankle_angle_r	subtalar_angle_r	mtp_angle_r	hip_flexion_l	hip_adduction_l	hip_rotation_l	knee_angle_l	knee_angle_l_beta	ankle_angle_l	subtalar_angle_l	mtp_angle_l	L5_S1_Flex_Ext	L5_S1_Lat_Bending	L5_S1_axial_rotation	L4_L5_Flex_Ext	L4_L5_Lat_Bending	L4_L5_axial_rotation	L3_L4_Flex_Ext	L3_L4_Lat_Bending	L3_L4_axial_rotation	L2_L3_Flex_Ext	L2_L3_Lat_Bending	L2_L3_axial_rotation	L1_L2_Flex_Ext	L1_L2_Lat_Bending	L1_L2_axial_rotation	L1_T12_Flex_Ext	L1_T12_Lat_Bending	L1_T12_axial_rotation	Abs_r3	Abs_r2	Abs_r1	Abs_t1	Abs_t2	neck_flexion	neck_bending	neck_rotation	arm_flex_r	arm_add_r	arm_rot_r	elbow_flex_r	pro_sup_r	wrist_flex_r	wrist_dev_r	arm_flex_l	arm_add_l	arm_rot_l	elbow_flex_l	pro_sup_l	wrist_flex_l	wrist_dev_l
      3.82352941	      1.83894847	    -14.30442741	     90.02856725	      0.20918054	      0.43872063	      0.55377715	      4.13892003	      2.21020675	    -12.75818884	      3.27984348	      0.05724407	    -35.53774387	    -18.99918297	      0.00000000	     -0.34331297	     -3.02842894	    -29.51331145	      7.60018066	      0.13264818	     -6.55935204	     16.08732148	      0.00000000	     -0.03702355	      0.87662681	     -0.80469120	     -0.06875644	      1.16591366	     -0.85498440	     -0.06082599	      2.13143043	     -0.85498440	     -0.04231422	      2.13143043	     -0.70410480	     -0.03438007	      1.78761739	     -0.65381160	     -0.02115526	      1.35789493	     -0.60351840	     -0.26445553	      9.91657781	     -4.47545107	      0.00000000	      0.00000000	     19.27482399	      1.91971837	      3.31807372	    486.14099821	    -81.20417236	    397.01375203	     59.83761021	     83.35393240	    -23.08893197	      7.29253285	    331.81255528	   -118.51413713	    368.85052101	      0.29711293	      2.61478175	    -56.40749516	    -21.74791730
      3.84313725	      1.47328379	    -13.72004237	     90.91913549	      0.20950932	      0.43843549	      0.55352415	      3.57862916	      1.87078992	    -13.93469000	      3.56142581	      0.06215861	    -34.64330562	    -19.01694042	      0.00000000	     -0.70763185	     -2.89729597	    -28.83058238	      7.98587134	      0.13937975	     -6.19887864	     16.16986129	      0.00000000	     -0.08715771	      0.81624538	     -0.89284112	     -0.16186059	      1.08560636	     -0.94864369	     -0.14319140	      1.98461903	     -0.94864369	     -0.09961255	      1.98461903	     -0.78123598	     -0.08093465	      1.66448759	     -0.72543341	     -0.04980192	      1.26436410	     -0.66963084	     -0.62255881	      9.23353104	     -4.96571444	      0.00000000	      0.00000000	     19.26672479	      0.90989600	      3.29961805	    467.52624728	    -80.74822617	    369.96362494	     64.03611023	     71.15354692	     -1.60012391	      7.20800448	    334.68687489	   -120.41431516	    372.97676268	      0.22682657	      2.67789403	    -66.84919918	    -21.98348521
      3.86274510	      0.81747753	    -13.13062448	     91.73190960	      0.21028889	      0.43709851	      0.55323288	      2.91874044	      1.27783311	    -14.39662825	      3.95118384	      0.06896117	    -32.55864237	    -19.01233240	      0.00000000	     -1.06581285	     -2.53220062	    -28.18196829	      8.51987401	      0.14869985	     -5.54534511	     16.17089334	      0.00000000	     -0.14368349	      0.72573233	     -0.90072237	     -0.26683460	      0.96522401	     -0.95701752	     -0.23605760	      1.76454560	     -0.95701752	     -0.16421586	      1.76454560	     -0.78813207	     -0.13342448	      1.47991338	     -0.73183693	     -0.08210074	      1.12415939	     -0.67554178	     -1.02631677	      8.20962932	     -5.00954761	      0.00000000	      0.00000000	     19.74129826	     -0.29455280	      3.29048246	    463.24523009	    -81.61868143	    362.69753399	     65.25675994	     55.39168755	     16.40956815	      9.34106230	    336.48722955	   -122.47112354	    374.58242742	      0.17519587	      2.36507302	    -69.03577123	    -22.82071305
      3.88235294	     -0.62773382	    -12.66299740	     92.46459977	      0.21274068	      0.43530837	      0.55288319	      2.23817563	      0.00313387	    -14.30910378	      4.38831625	      0.07659057	    -29.23452658	    -18.99647724	      0.00000000	     -1.31807143	     -1.46568831	    -27.42664040	      9.05892050	      0.15810799	     -5.10482473	     16.21190841	      0.00000000	     -0.19461757	      0.48006084	     -1.01190741	     -0.36142429	      0.63848092	     -1.07515162	     -0.31973720	      1.16721992	     -1.07515162	     -0.22242842	      1.16721992	     -0.88541898	     -0.18072187	      0.97894006	     -0.82217477	     -0.11120448	      0.74361424	     -0.75893056	     -1.39013383	      5.43054422	     -5.62792544	      0.00000000	      0.00000000	     20.38981209	      0.36187013	      1.85189656	    443.51355956	    -82.68440963	    343.29788289	     68.18499522	     45.90969725	     22.58874065	     10.11211296	    339.18935798	   -125.17943142	    377.38868462	      0.14955106	      1.94254860	    -69.40547200	    -23.21380160
      3.90196078	     -1.95712525	    -12.50905431	     92.64784071	      0.21481724	      0.43265745	      0.55277426	      1.98687755	     -1.24822993	    -13.32364086	      5.03948438	      0.08795559	    -25.56812662	    -18.95998892	      0.00000000	     -1.33909681	     -0.37241614	    -27.04804126	      9.54171446	      0.16653433	     -4.19678673	     16.10905690	      0.00000000	     -0.21708583	      0.25466431	     -0.95999073	     -0.40315010	      0.33870354	     -1.01999015	     -0.35665031	      0.61919081	     -1.01999015	     -0.24810740	      0.61919081	     -0.83999189	     -0.20158590	      0.51931147	     -0.77999247	     -0.12404284	      0.39447502	     -0.71999305	     -1.55062239	      2.88081366	     -5.33918044	      0.00000000	      0.00000000	     21.55322165	      1.06509344	     -0.07980585	    417.09251494	    -83.82908998	    318.42253372	     70.94356123	     38.70908072	     25.49358012	     10.24736279	    340.38227935	   -127.60263912	    377.90539675	      0.13564921	      1.58435063	    -69.55689061	    -23.43648999
      3.92156863	     -3.32647407	    -12.53918407	     92.37077186	      0.21738710	      0.42947980	      0.55287222	      2.06979629	     -2.57460029	    -12.17172272	      5.88328006	      0.10268261	    -22.11496882	    -18.91922720	      0.00000000	     -1.23421882	      0.83214067	    -26.92415257	      9.94888815	      0.17364086	     -3.04623420	     15.96363354	      0.00000000	     -0.21877368	      0.01731338	     -0.69869558	     -0.40628461	      0.02302679	     -0.74236405	     -0.35942328	      0.04209574	     -0.74236405	     -0.25003644	      0.04209574	     -0.61135863	     -0.20315324	      0.03530544	     -0.56769016	     -0.12500728	      0.02681842	     -0.52402168	     -1.56267854	      0.19585237	     -3.88593519	      0.00000000	      0.00000000	     22.89739386	      1.95162620	     -3.06363360	    374.27310873	    -83.29307469	    277.88451258	     74.09250782	     32.81204090	     25.83059082	      9.56426497	    339.69776536	   -129.89923194	    375.97182984	      0.12692173	      1.30388620	    -69.64176173	    -23.56003086
      3.94117647	     -4.89682174	    -12.36297796	     91.77573849	      0.22074621	      0.42635300	      0.55425401	      2.13192698	     -4.11509638	    -11.38469925	      6.89384899	      0.12032036	    -19.14015852	    -18.87131630	      0.00000000	     -1.25375425	      2.23410288	    -26.86401850	     10.39627667	      0.18144926	     -1.78808188	     15.67946545	      0.00000000	     -0.25398283	     -0.23794711	     -0.65003816	     -0.47167152	     -0.31646966	     -0.69066554	     -0.41726839	     -0.57854461	     -0.69066554	     -0.29027698	     -0.57854461	     -0.56878339	     -0.23584846	     -0.48522175	     -0.52815600	     -0.14512579	     -0.36858008	     -0.48752862	     -1.81417397	     -2.69170532	     -3.61531721	      0.00000000	      0.00000000	     23.63005388	      3.66037103	     -4.18348808	    372.31059163	    -79.63614284	    275.72592626	     77.26157607	     31.57753791	     25.58757898	      9.97069753	    340.51818276	   -130.99150280	    375.89673003	      0.12074172	      1.09576508	    -69.69747009	    -23.66680911
